<svg xmlns="http://www.w3.org/2000/svg" width="1024" height="1024" viewBox="0 0 1024 1024"><path d="M512 16.001c-98.1 0-193.996 29.09-275.561 83.592S91.298 231.56 53.757 322.191C16.216 412.823 6.394 512.552 25.531 608.766s66.378 184.592 135.745 253.957c69.366 69.366 157.746 116.61 253.961 135.749s195.947 9.316 286.575-28.228a495.944 495.944 0 0 0 222.599-182.681 495.977 495.977 0 0 0 83.591-275.561A496.568 496.568 0 0 0 512.003 16.003zM691.59 637.64a38.043 38.043 0 0 1 8.283 12.379 38.046 38.046 0 0 1 2.918 14.601 38.096 38.096 0 0 1-2.899 14.614 38.291 38.291 0 0 1-8.272 12.386c-3.547 3.541-7.753 6.355-12.386 8.272s-9.596 2.899-14.614 2.899c-5.012 0-9.975-.995-14.601-2.918a38.064 38.064 0 0 1-12.379-8.283L512 565.949 386.36 691.59c-7.158 7.143-16.857 11.153-26.967 11.147a38.156 38.156 0 0 1-38.129-38.129 38.149 38.149 0 0 1 11.144-26.971l125.64-125.64-125.64-125.641a38.148 38.148 0 0 1 .03-53.922 38.146 38.146 0 0 1 53.922-.03L512 458.044l125.64-125.64a38.147 38.147 0 0 1 53.922.03 38.14 38.14 0 0 1 .031 53.922L565.952 511.997l125.641 125.64z"/></svg>