<svg xmlns="http://www.w3.org/2000/svg" width="1024" height="1024" viewBox="0 0 1024 1024"><path d="M512 16A496.005 496.005 0 0 0 53.757 322.189a495.997 495.997 0 0 0 107.52 540.536c69.366 69.368 157.747 116.608 253.96 135.747s195.944 9.315 286.576-28.229a495.987 495.987 0 0 0 306.188-458.242 496.567 496.567 0 0 0-145.437-350.56A496.567 496.567 0 0 0 512.002 16.002zm0 915.691a419.689 419.689 0 1 1 160.61-807.433 419.668 419.668 0 0 1 188.347 154.577 419.662 419.662 0 0 1 70.731 233.168 420.13 420.13 0 0 1-123.064 296.628 420.178 420.178 0 0 1-296.628 123.064zm179.596-294.053a38.156 38.156 0 0 1-26.982 65.131 38.136 38.136 0 0 1-26.977-11.177L511.998 565.958 386.364 691.592a38.153 38.153 0 0 1-62.23-41.579 38.113 38.113 0 0 1 8.271-12.376l125.638-125.64L332.405 386.36a38.15 38.15 0 0 1 .003-53.957 38.151 38.151 0 0 1 53.957.003L511.999 458.04l125.634-125.634c7.154-7.157 16.859-11.176 26.977-11.177s19.825 4.019 26.982 11.175a38.156 38.156 0 0 1 11.172 26.979 38.143 38.143 0 0 1-11.172 26.98L565.958 512l125.639 125.64z"/></svg>