<svg xmlns="http://www.w3.org/2000/svg" width="1024" height="1024" viewBox="0 0 1024 1024"><path d="M749.448 371.193a38.154 38.154 0 0 1 10.543 27.231 38.183 38.183 0 0 1-11.802 26.712L468.397 692.212a38.154 38.154 0 0 1-26.341 10.555 38.142 38.142 0 0 1-26.344-10.555L275.811 558.673a38.158 38.158 0 0 1-11.802-26.711 38.157 38.157 0 0 1 37.254-39.034 38.172 38.172 0 0 1 27.233 10.546l113.557 108.391 253.448-241.929a38.122 38.122 0 0 1 12.566-7.978c4.674-1.81 9.654-2.684 14.663-2.568s9.949 1.217 14.529 3.246a38.101 38.101 0 0 1 12.184 8.556zm258.551 140.806a495.995 495.995 0 0 1-306.191 458.242 495.993 495.993 0 0 1-676.28-361.479A495.999 495.999 0 0 1 511.996 15.997a496.56 496.56 0 0 1 496 496zm-76.307 0a419.689 419.689 0 0 0-259.083-387.745 419.69 419.69 0 0 0-393.775 736.705 419.686 419.686 0 0 0 233.168 70.731 420.166 420.166 0 0 0 419.693-419.693z"/></svg>