<svg width="24" height="24" viewBox="0 0 24 24" xmlns="http://www.w3.org/2000/svg">
<path d="M12 1C9.82437 1 7.69764 1.64514 5.8887 2.85383C4.07976 4.06253 2.66986 5.78049 1.8373 7.79048C1.00474 9.80046 0.786899 12.0122 1.21134 14.146C1.63577 16.2798 2.68342 18.2398 4.2218 19.7782C5.76017 21.3165 7.72019 22.3642 9.85398 22.7886C11.9878 23.2131 14.1995 22.9952 16.2095 22.1627C18.2195 21.3301 19.9374 19.9202 21.1461 18.1113C22.3548 16.3023 23 14.1756 23 12C23 9.08261 21.841 6.28472 19.7781 4.22182C17.7152 2.15892 14.9173 1 12 1ZM10.22 10.435C10.528 10.6815 10.8765 10.8727 11.25 11C11.43 11.065 11.63 11.13 11.865 11.195C12.1 11.26 12.465 11.345 12.75 11.44C13.471 11.6513 14.1483 11.99 14.75 12.44C15.0394 12.6748 15.2726 12.9712 15.4327 13.3078C15.5927 13.6443 15.6755 14.0123 15.675 14.385C15.6729 14.8007 15.5709 15.2097 15.3778 15.5778C15.1846 15.9459 14.9059 16.2621 14.565 16.5C14.0314 16.8894 13.4061 17.134 12.75 17.21V18.5H11.25V17.19C10.8673 17.1361 10.4939 17.0301 10.14 16.875C9.58721 16.6354 9.11138 16.2479 8.76496 15.755C8.4345 15.2779 8.25984 14.7103 8.26497 14.13H9.76497C9.76121 14.4049 9.84337 14.6741 9.99998 14.9C10.1914 15.1658 10.4528 15.3735 10.755 15.5C10.9158 15.57 11.0834 15.6236 11.255 15.66C11.4993 15.7172 11.7491 15.7474 12 15.75C12.2469 15.7498 12.4931 15.7247 12.735 15.675C13.0644 15.6177 13.3769 15.4879 13.65 15.295C13.8049 15.1947 13.932 15.0568 14.0195 14.8942C14.1069 14.7317 14.1518 14.5496 14.15 14.365C14.1505 14.2102 14.1152 14.0573 14.0466 13.9185C13.9781 13.7797 13.8782 13.6587 13.755 13.565C13.4482 13.3303 13.1099 13.1401 12.75 13C12.3442 12.8374 11.9262 12.707 11.5 12.61L11.25 12.535C10.5251 12.3512 9.84489 12.023 9.24998 11.57C8.96058 11.3352 8.72733 11.0387 8.56729 10.7022C8.40724 10.3657 8.32445 9.99764 8.32497 9.625C8.32546 9.20764 8.42662 8.79656 8.61986 8.42663C8.81309 8.05669 9.0927 7.73883 9.43497 7.49999C9.96851 7.11058 10.5938 6.86598 11.25 6.79V5.5H12.75V6.80999C13.1326 6.8638 13.5061 6.96979 13.86 7.12499C14.4127 7.36454 14.8886 7.75213 15.235 8.245C15.5654 8.72204 15.7401 9.28969 15.735 9.86999H14.235C14.2387 9.59512 14.1566 9.32593 14 9.1C13.8085 8.83416 13.5472 8.62649 13.245 8.5C13.0841 8.43003 12.9166 8.37642 12.745 8.33999C12.5007 8.2828 12.2509 8.25261 12 8.24999C11.7531 8.25014 11.5068 8.27527 11.265 8.32499C10.9356 8.38226 10.623 8.51206 10.35 8.70499C10.195 8.80529 10.0679 8.94314 9.98047 9.10574C9.89306 9.26833 9.84817 9.45039 9.84998 9.63498C9.84643 9.78774 9.87793 9.93927 9.94207 10.078C10.0062 10.2166 10.1013 10.3388 10.22 10.435Z" />
</svg>
