<svg width="24" height="24" viewBox="0 0 24 24" fill="none" xmlns="http://www.w3.org/2000/svg">
<path fill-rule="evenodd" clip-rule="evenodd" d="M1.25 4C1.25 2.48122 2.48122 1.25 4 1.25H8C9.51878 1.25 10.75 2.48122 10.75 4V8C10.75 9.51878 9.51878 10.75 8 10.75H4C2.48122 10.75 1.25 9.51878 1.25 8V4ZM4 2.75C3.30964 2.75 2.75 3.30964 2.75 4V8C2.75 8.69036 3.30964 9.25 4 9.25H8C8.69036 9.25 9.25 8.69036 9.25 8V4C9.25 3.30964 8.69036 2.75 8 2.75H4Z" fill="#221814"/>
<path fill-rule="evenodd" clip-rule="evenodd" d="M1.25 16C1.25 14.4812 2.48122 13.25 4 13.25H8C9.51878 13.25 10.75 14.4812 10.75 16V20C10.75 21.5188 9.51878 22.75 8 22.75H4C2.48122 22.75 1.25 21.5188 1.25 20V16ZM4 14.75C3.30964 14.75 2.75 15.3096 2.75 16V20C2.75 20.6904 3.30964 21.25 4 21.25H8C8.69036 21.25 9.25 20.6904 9.25 20V16C9.25 15.3096 8.69036 14.75 8 14.75H4Z" fill="#221814"/>
<path fill-rule="evenodd" clip-rule="evenodd" d="M13 3.25C13 2.83579 13.3358 2.5 13.75 2.5H21.25C21.6642 2.5 22 2.83579 22 3.25C22 3.66421 21.6642 4 21.25 4H13.75C13.3358 4 13 3.66421 13 3.25Z" fill="#221814"/>
<path fill-rule="evenodd" clip-rule="evenodd" d="M13 15.25C13 14.8358 13.3358 14.5 13.75 14.5H21.25C21.6642 14.5 22 14.8358 22 15.25C22 15.6642 21.6642 16 21.25 16H13.75C13.3358 16 13 15.6642 13 15.25Z" fill="#221814"/>
<path fill-rule="evenodd" clip-rule="evenodd" d="M13 8.25C13 7.83579 13.3358 7.5 13.75 7.5H21.25C21.6642 7.5 22 7.83579 22 8.25C22 8.66421 21.6642 9 21.25 9H13.75C13.3358 9 13 8.66421 13 8.25Z" fill="#221814"/>
<path fill-rule="evenodd" clip-rule="evenodd" d="M13 20.25C13 19.8358 13.3358 19.5 13.75 19.5H21.25C21.6642 19.5 22 19.8358 22 20.25C22 20.6642 21.6642 21 21.25 21H13.75C13.3358 21 13 20.6642 13 20.25Z" fill="#221814"/>
</svg>
