<svg width="24" height="24" viewBox="0 0 24 24" fill="none" xmlns="http://www.w3.org/2000/svg">
<path d="M6.90089 11.1959C6.4717 11.5846 5.9259 11.7965 5.33704 11.7965C5.22634 11.7965 5.11909 11.7897 5.01184 11.7761C4.4168 11.6978 3.92208 11.3266 3.65223 10.7613C3.35125 10.1278 3.39277 9.37181 3.7664 8.78946L6.01166 5.25454H19.9883L22.2336 8.78265C22.6072 9.3684 22.6487 10.121 22.3478 10.7544C22.0779 11.3198 21.5832 11.691 20.9881 11.7693C20.8809 11.7829 20.7737 11.7897 20.6629 11.7897C20.0757 11.7897 19.5313 11.579 19.1027 11.1923C19.0439 11.1393 18.9874 11.083 18.9332 11.0235L18.1098 10.1244L17.2864 11.0303C17.2333 11.0886 17.178 11.1437 17.1206 11.1957C16.6914 11.5846 16.1455 11.7965 15.5566 11.7965C14.967 11.7965 14.4205 11.5841 13.9911 11.1943C13.9342 11.1427 13.8794 11.088 13.8268 11.0303L13 10.1244L12.1766 11.0303C12.1235 11.0886 12.0681 11.1438 12.0107 11.1959C11.5815 11.5846 11.0357 11.7965 10.4468 11.7965C9.8572 11.7965 9.31073 11.5841 8.88128 11.1943C8.82443 11.1427 8.76963 11.088 8.71705 11.0303L7.89021 10.1244L7.06683 11.0303C7.01372 11.0886 6.95835 11.1438 6.90089 11.1959Z" fill="#FFD961"/>
<path d="M20.2651 13.2223C19.4582 13.1388 18.7114 12.8022 18.1135 12.2568C17.4174 12.8951 16.518 13.2496 15.5566 13.2496C14.5961 13.2496 13.6975 12.8958 13.0017 12.2586C12.3059 12.8958 11.4073 13.2496 10.4468 13.2496C9.48635 13.2496 8.58774 12.8958 7.89194 12.2586C7.29317 12.8069 6.54423 13.1454 5.7349 13.2291V20.9956H20.2651V13.2223Z" fill="#FFD961"/>
<path fill-rule="evenodd" clip-rule="evenodd" d="M22.6601 10.3781L22.659 10.3804C22.1904 11.362 21.29 12.0635 20.1777 12.2099L20.1712 12.2107C20.0027 12.2321 19.8343 12.2427 19.6629 12.2427C18.7049 12.2427 17.8085 11.8908 17.1134 11.2568C16.4174 11.8951 15.518 12.2496 14.5566 12.2496C13.5961 12.2496 12.6975 11.8958 12.0017 11.2586C11.3059 11.8958 10.4073 12.2496 9.44677 12.2496C8.48628 12.2496 7.58768 11.8958 6.89188 11.2586C6.19608 11.8958 5.29747 12.2496 4.33698 12.2496C4.16556 12.2496 3.99715 12.2389 3.8287 12.2175L3.82215 12.2167C2.70983 12.0703 1.80943 11.3688 1.34088 10.3872L1.33977 10.3849C0.830048 9.31213 0.890935 8.02422 1.54135 7.00799L3.62393 3.7292C3.99087 3.15148 4.62776 2.80151 5.31216 2.80151H18.688C19.3718 2.80151 20.0082 3.15085 20.3753 3.72773L22.4585 7.00125M5.90083 10.1959C5.47164 10.5846 4.92584 10.7965 4.33698 10.7965C4.22628 10.7965 4.11903 10.7897 4.01178 10.7761C3.41674 10.6978 2.92202 10.3266 2.65217 9.76126C2.35119 9.12783 2.3927 8.37181 2.76634 7.78946L5.0116 4.25454H18.9883L21.2335 7.78265C21.6072 8.3684 21.6487 9.12102 21.3477 9.75445C21.0778 10.3198 20.5831 10.691 19.9881 10.7693C19.8808 10.7829 19.7736 10.7897 19.6629 10.7897C19.0757 10.7897 18.5313 10.579 18.1026 10.1923C18.0439 10.1393 17.9873 10.083 17.9331 10.0235L17.1097 9.12443L16.2863 10.0303C16.2333 10.0886 16.178 10.1437 16.1206 10.1957C15.6913 10.5846 15.1455 10.7965 14.5566 10.7965C13.9669 10.7965 13.4205 10.5841 12.991 10.1943C12.9342 10.1427 12.8794 10.088 12.8268 10.0303L11.9999 9.12443L11.1766 10.0303C11.1235 10.0886 11.0681 10.1438 11.0106 10.1959C10.5814 10.5846 10.0356 10.7965 9.44677 10.7965C8.85714 10.7965 8.31067 10.5841 7.88122 10.1943C7.82437 10.1427 7.76956 10.088 7.71698 10.0303L6.89015 9.12443L6.06677 10.0303C6.01366 10.0886 5.95829 10.1438 5.90083 10.1959ZM22.6601 10.3781C23.1709 9.30307 23.1074 8.01945 22.4594 7.00254Z" fill="#221814"/>
<path fill-rule="evenodd" clip-rule="evenodd" d="M4.73484 19.9956V11.0353H3.28182V20.7221C3.28182 21.1234 3.60709 21.4486 4.00833 21.4486H19.9916C20.3928 21.4486 20.7181 21.1234 20.7181 20.7221V11.0353H19.2651V19.9956H4.73484Z" fill="#221814"/>
</svg>
