<svg width="24" height="24" viewBox="0 0 24 24" fill="none" xmlns="http://www.w3.org/2000/svg">
<path fill-rule="evenodd" clip-rule="evenodd" d="M22.6602 10.2529L22.6591 10.2553C22.1906 11.2368 21.2902 11.9384 20.1778 12.0848L20.1713 12.0856C20.0028 12.107 19.8344 12.1176 19.663 12.1176C18.705 12.1176 17.8086 11.7657 17.1136 11.1316C16.4175 11.77 15.5181 12.1244 14.5567 12.1244C13.5962 12.1244 12.6976 11.7707 12.0018 11.1335C11.306 11.7707 10.4074 12.1244 9.44689 12.1244C8.48641 12.1244 7.5878 11.7707 6.892 11.1335C6.1962 11.7707 5.29759 12.1244 4.33711 12.1244C4.16568 12.1244 3.99728 12.1138 3.82882 12.0924L3.82228 12.0916C2.70995 11.9452 1.80955 11.2437 1.341 10.2621L1.33989 10.2597C0.83017 9.18701 0.891057 7.8991 1.54148 6.88287L3.62405 3.60408C3.991 3.02636 4.62788 2.67639 5.31229 2.67639H18.6881C19.3719 2.67639 20.0083 3.02573 20.3754 3.60261L22.4587 6.87612M5.90095 10.0708C5.47177 10.4595 4.92596 10.6714 4.33711 10.6714C4.2264 10.6714 4.11915 10.6646 4.01191 10.651C3.41686 10.5727 2.92214 10.2015 2.65229 9.63614C2.35131 9.00271 2.39283 8.24669 2.76646 7.66434L5.01172 4.12941H18.9884L21.2337 7.65753C21.6073 8.24328 21.6488 8.9959 21.3478 9.62933C21.078 10.1946 20.5833 10.5658 19.9882 10.6442C19.881 10.6578 19.7737 10.6646 19.663 10.6646C19.0758 10.6646 18.5314 10.4539 18.1028 10.0672C18.044 10.0142 17.9874 9.95789 17.9332 9.89836L17.1098 8.99931L16.2865 9.90518C16.2334 9.96343 16.1781 10.0186 16.1207 10.0706C15.6915 10.4595 15.1456 10.6714 14.5567 10.6714C13.967 10.6714 13.4206 10.459 12.9911 10.0692C12.9343 10.0176 12.8795 9.96291 12.8269 9.90518L12.0001 8.99931L11.1767 9.90518C11.1236 9.96348 11.0682 10.0187 11.0107 10.0708C10.5816 10.4595 10.0357 10.6714 9.44689 10.6714C8.85726 10.6714 8.31079 10.459 7.88135 10.0692C7.82449 10.0176 7.76969 9.96291 7.71711 9.90518L6.89027 8.99931L6.06689 9.90518C6.01378 9.96348 5.95841 10.0187 5.90095 10.0708ZM22.6602 10.2529C23.171 9.17795 23.1075 7.89433 22.4595 6.87742L22.6602 10.2529Z" fill="#221814"/>
<path fill-rule="evenodd" clip-rule="evenodd" d="M4.73497 19.8705V10.9102H3.28194V20.597C3.28194 20.9982 3.60721 21.3235 4.00845 21.3235H19.9917C20.3929 21.3235 20.7182 20.9982 20.7182 20.597V10.9102H19.2652V19.8705H4.73497Z" fill="#221814"/>
</svg>
