<svg xmlns="http://www.w3.org/2000/svg" width="1024" height="1024" viewBox="0 0 1024 1024"><path d="M39.988 115.322c6.406-51.244 49.967-89.699 101.61-89.699h740.806c51.641 0 95.201 38.455 101.61 89.699l37.651 301.241a75.842 75.842 0 0 1 2.335 18.662c0 56.551-63.037 102.397-140.801 102.397-56.794 0-105.738-24.457-127.999-59.681-22.26 35.225-71.206 59.681-127.999 59.681-47.62 0-89.722-17.191-115.2-43.507-25.482 26.316-67.58 43.507-115.2 43.507-56.797 0-105.738-24.457-128.001-59.681-22.262 35.225-71.204 59.681-128 59.681C63.039 537.622.001 491.776.001 435.225c0-6.374.8-12.614 2.333-18.666l37.655-301.237z"/><path d="M39.988 115.322c6.406-51.244 49.967-89.699 101.61-89.699h740.806c51.641 0 95.201 38.455 101.61 89.699l37.651 301.241a75.842 75.842 0 0 1 2.335 18.662c0 56.551-63.037 102.397-140.801 102.397-56.794 0-105.738-24.457-127.999-59.681-22.26 35.225-71.206 59.681-127.999 59.681-47.62 0-89.722-17.191-115.2-43.507-25.482 26.316-67.58 43.507-115.2 43.507-56.797 0-105.738-24.457-128.001-59.681-22.262 35.225-71.204 59.681-128 59.681C63.039 537.622.001 491.776.001 435.225c0-6.374.8-12.614 2.333-18.666l37.655-301.237zM76.8 580.182V895.98c0 56.551 45.846 102.397 102.4 102.397h665.599c56.556 0 102.401-45.846 102.401-102.397V580.182c-20.282 5.641-41.879 8.598-64.001 8.598-46.652 0-92.575-13.421-127.999-38.531-35.428 25.11-81.347 38.531-127.999 38.531-41.753 0-82.138-10.598-115.2-30.247-33.066 19.649-73.452 30.247-115.2 30.247-46.656 0-92.575-13.421-128.001-38.531-35.426 25.11-81.347 38.531-128 38.531-22.12 0-43.717-2.957-64-8.598z"/><path d="M76.8 580.182V895.98c0 56.551 45.846 102.397 102.4 102.397h665.599c56.556 0 102.401-45.846 102.401-102.397V580.182c-20.282 5.641-41.879 8.598-64.001 8.598-46.652 0-92.575-13.421-127.999-38.531-35.428 25.11-81.347 38.531-127.999 38.531-41.753 0-82.138-10.598-115.2-30.247-33.066 19.649-73.452 30.247-115.2 30.247-46.656 0-92.575-13.421-128.001-38.531-35.426 25.11-81.347 38.531-128 38.531-22.12 0-43.717-2.957-64-8.598z"/></svg>