<svg xmlns="http://www.w3.org/2000/svg" width="1024" height="1024" viewBox="0 0 1024 1024"><path d="M383.658 990.981C119.124 920.1-37.861 648.191 33.021 383.658S375.81-37.861 640.343 33.02c264.534 70.881 421.518 342.789 350.637 607.322s-342.789 421.521-607.322 350.64zm-4.141 15.45c273.067 73.168 553.745-88.882 626.914-361.949S917.549 90.739 644.482 17.569 90.737 106.451 17.569 379.517s88.881 553.744 361.948 626.913z"/><path d="M940.21 643.31l-15.296-4.68a441.309 441.309 0 0 0 8-29.855l15.586 3.594a457.687 457.687 0 0 1-8.291 30.94zm14.369-62.317l-15.802-2.483a432.436 432.436 0 0 0 3.698-30.625l15.938 1.348a447.726 447.726 0 0 1-3.835 31.759zm5.385-63.678l-15.996-.202a428.33 428.33 0 0 0-.721-30.828l15.969-.949c.631 10.602.883 21.266.749 31.98zm-3.792-63.803l-15.858 2.095a430.472 430.472 0 0 0-5.132-30.401l15.668-3.226a446.564 446.564 0 0 1 5.322 31.533zm-12.888-62.598l-15.395 4.338a433.638 433.638 0 0 0-9.416-29.363l15.047-5.425a447.535 447.535 0 0 1 9.764 30.449zm-21.67-60.125l-14.624 6.481a434.02 434.02 0 0 0-13.488-27.734l14.127-7.502a449.511 449.511 0 0 1 13.985 28.755zm-29.972-56.446l-13.56 8.484a434.947 434.947 0 0 0-17.275-25.547l12.925-9.425a450.114 450.114 0 0 1 17.911 26.488zm-37.657-51.638a449.205 449.205 0 0 0-21.488-23.681l-11.455 11.165a432.153 432.153 0 0 1 20.72 22.835l12.223-10.32zm-44.609-45.764l-10.627 11.956a429.263 429.263 0 0 0-23.761-19.644l9.742-12.686a445.753 445.753 0 0 1 24.646 20.375zm-50.684-38.924l-8.807 13.354a428.544 428.544 0 0 0-26.335-16.038l7.821-13.953a443.813 443.813 0 0 1 27.321 16.637zm-55.739-31.255l-6.804 14.478a431.968 431.968 0 0 0-28.37-12.11l5.75-14.926a447.907 447.907 0 0 1 29.424 12.558zM643.32 83.78l-4.681 15.296c-4.908-1.502-9.86-2.922-14.857-4.262s-9.997-2.585-14.998-3.737l3.596-15.587a456.71 456.71 0 0 1 30.941 8.29zm-62.316-14.368l-2.484 15.802a432.23 432.23 0 0 0-30.625-3.699l1.35-15.939a447.43 447.43 0 0 1 31.759 3.836zm-63.682-5.386l-.201 15.995a427.726 427.726 0 0 0-30.828.721l-.949-15.968c10.6-.631 21.266-.883 31.977-.748zm-63.8 3.792l2.092 15.859a429.838 429.838 0 0 0-30.399 5.131l-3.227-15.667a445.729 445.729 0 0 1 31.534-5.323zm-62.6 12.887l4.338 15.396a433.053 433.053 0 0 0-29.363 9.416l-5.424-15.048a449.56 449.56 0 0 1 30.448-9.765zm-60.124 21.672a450.53 450.53 0 0 0-28.754 13.983l7.501 14.128c9.077-4.82 18.33-9.32 27.733-13.487l-6.48-14.624zm-56.447 29.97l8.484 13.56a434.257 434.257 0 0 0-25.546 17.275l-9.425-12.925a449.94 449.94 0 0 1 26.488-17.911zm-51.637 37.659l10.321 12.222a432.295 432.295 0 0 0-22.836 20.72l-11.166-11.455a447.52 447.52 0 0 1 23.681-21.487zm-45.766 44.608l11.956 10.627a429.673 429.673 0 0 0-19.645 23.762l-12.686-9.742a445.31 445.31 0 0 1 20.374-24.647zm-38.921 50.685l13.354 8.806a428.582 428.582 0 0 0-16.039 26.336l-13.953-7.823a442.818 442.818 0 0 1 16.638-27.32zm-31.256 55.739l14.478 6.802a431.358 431.358 0 0 0-12.108 28.371l-14.927-5.75a447.11 447.11 0 0 1 12.558-29.423zm-22.982 59.633a456.175 456.175 0 0 0-8.29 30.94l15.587 3.595a440.069 440.069 0 0 1 7.997-29.855l-15.295-4.68zM69.42 442.987l15.802 2.484a432.316 432.316 0 0 0-3.699 30.623l-15.939-1.348a447.43 447.43 0 0 1 3.836-31.759zm-5.385 63.681l15.995.201a427.726 427.726 0 0 0 .721 30.828l-15.968.949a443.967 443.967 0 0 1-.748-31.977zm3.791 63.8l15.859-2.095a428.936 428.936 0 0 0 5.132 30.401l-15.668 3.227a446.214 446.214 0 0 1-5.323-31.534zm12.888 62.598l15.396-4.338a431.213 431.213 0 0 0 9.416 29.363l-15.049 5.426a448.121 448.121 0 0 1-9.764-30.45zm21.672 60.126l14.624-6.482a434.022 434.022 0 0 0 13.486 27.735l-14.127 7.501a449.709 449.709 0 0 1-13.982-28.754zm29.97 56.447l13.56-8.484a434.924 434.924 0 0 0 17.275 25.546l-12.925 9.425a449.45 449.45 0 0 1-17.911-26.488zm37.658 51.637l12.221-10.321a432.732 432.732 0 0 0 20.72 22.836L191.5 824.957a447.937 447.937 0 0 1-21.486-23.681zm44.608 45.766l10.627-11.956a430.022 430.022 0 0 0 23.761 19.645l-9.742 12.686a446.636 446.636 0 0 1-24.646-20.374zm50.686 38.921l8.804-13.354a428.63 428.63 0 0 0 26.338 16.039l-7.823 13.953a443.777 443.777 0 0 1-27.319-16.638zm55.739 31.257l6.801-14.479a432.43 432.43 0 0 0 28.37 12.11l-5.75 14.927a448.473 448.473 0 0 1-29.422-12.558zm59.633 22.981l4.68-15.296a439.457 439.457 0 0 0 29.855 7.999l-3.594 15.586a449.255 449.255 0 0 1-15.544-3.874 450.733 450.733 0 0 1-15.396-4.417zm62.317 14.369l2.483-15.802a430.479 430.479 0 0 0 30.625 3.698l-1.348 15.938a447.726 447.726 0 0 1-31.759-3.835zm63.678 5.385l.202-15.994a428.33 428.33 0 0 0 30.828-.721l.949 15.969c-10.602.63-21.266.883-31.98.746zm63.804-3.793l-2.095-15.858a429.517 429.517 0 0 0 30.401-5.132l3.225 15.668a444.718 444.718 0 0 1-31.532 5.322zm62.597-12.886l-4.338-15.396a431.571 431.571 0 0 0 29.363-9.416l5.424 15.049a449.393 449.393 0 0 1-30.448 9.764zm60.124-21.671l-6.48-14.624a434.281 434.281 0 0 0 27.735-13.486l7.501 14.127a449.242 449.242 0 0 1-28.756 13.982zm56.448-29.971l-8.484-13.56a434.924 434.924 0 0 0 25.546-17.275l9.425 12.925a450.447 450.447 0 0 1-26.488 17.911zm51.636-37.658l-10.318-12.221a433.526 433.526 0 0 0 22.836-20.72l11.163 11.453a447.106 447.106 0 0 1-23.681 21.488zm45.765-44.608l-11.955-10.627a429.988 429.988 0 0 0 19.643-23.761l12.686 9.742a444.394 444.394 0 0 1-20.374 24.646zm38.924-50.686l-13.354-8.807a429.522 429.522 0 0 0 16.037-26.335l13.953 7.823a443.75 443.75 0 0 1-16.636 27.319zm31.254-55.739l-14.478-6.801a432.43 432.43 0 0 0 12.11-28.37l14.925 5.75a446.854 446.854 0 0 1-12.558 29.422zM162.132 550.733C177.652 690.598 276.793 813.3 420.92 851.919s291.334-18.075 374.71-131.442l-16.653-4.462C698.78 820.878 560.493 872.757 425.059 836.467c-135.433-36.287-229.253-150.36-246.275-281.272l-16.653-4.462zM369.642 474.821l-133.465-35.762-15.998 59.702c-2.163 8.075.721 13.176 8.652 15.301l108.589 29.097c3.749 1.005 7.486.614 11.21-1.171 4.165-2.282 9.879-14.663 17.138-37.138l18.378 11.879c-9.86 26.415-17.721 41.62-23.582 45.614-6.466 3.367-14.083 4.108-22.853 2.222l-120.053-32.169c-17.882-4.791-24.312-16.559-19.287-35.307l30.196-112.7 20.767 5.564-7.883 29.419L354.15 449.57l13.795-51.483-143.416-38.428 5.274-19.685 164.181 43.992-24.344 90.852zM529.72 417.325l103.831 27.822-5.217 19.468-41.532-11.129c-2.722 6.69-5.503 12.745-8.345 18.165l39.803 10.666-28.055 104.695-19.899-5.332 22.951-85.66-50.833-13.622-23.531 87.824-20.119-5.392 28.633-106.858 30.934 8.288a300.987 300.987 0 0 0 8.344-18.167l-42.181-11.302 5.217-19.468zm33.244 161.462c11.031 15.938 19.899 31.299 26.605 46.077l-18.651 10.769c-5.272-13.778-13.735-29.492-25.389-47.143l17.436-9.702zm-8.196-81.024l19.25 5.157-10.084 37.64c-7.164 23.273-16.821 40.856-28.972 52.749-11.476 10.525-27.665 17.007-48.566 19.445l-6.236-19.986c19.159-2.286 33.396-7.823 42.705-16.61 9.176-9.444 16.448-23.028 21.816-40.756l10.086-37.637zm-59.49-96.39c9.344 19.351 18.54 40.98 27.59 64.89l-17.513 10.843c-7.559-24.284-14.55-43.468-20.976-57.556-17.939 17.914-36.889 33.549-56.85 46.902l-7.277-19.571c20.212-13.131 40.101-29.672 59.667-49.624l15.358 4.115zm-71.174 81.318l79.605 21.33-4.637 17.303c-13.706 15.958-28.262 29.911-43.674 41.855 5.289 8.527 10.438 17.867 15.446 28.018l-18.651 10.769c-7.979-18.677-20.974-40.551-38.986-65.627l17.22-9.759a741.053 741.053 0 0 1 14.646 20.618c9.252-7.414 19.722-17.359 31.412-29.838l-57.539-15.418 5.157-19.25zm51.874-35.254c5.725 14.981 9.747 27.652 12.072 38.013l-17.491 6.441c-2.449-11.63-6.356-24.732-11.724-39.309l17.144-5.144zM656.321 451.016l105.128 28.168-3.187 11.896 84.361 22.605-5.042 18.819c-15.307 38.094-33.626 68.966-54.956 92.617 5.428 19.539 13.697 38.293 24.802 56.261l-18.075 12.083c-9.597-17.257-17.127-34.728-22.586-52.422-15.625 13.897-32.724 24.928-51.294 33.088l-9.77-19.773c20.571-8.708 38.883-20.803 54.932-36.287-7.433-33.987-7.817-69.175-1.158-105.567l-6.921-1.856 3.304-12.33-15.576-4.172-30.951 115.51 20.371.126-5.507 20.55c-4.635-.006-11.406-.119-20.311-.341l-10.259 38.288-20.119-5.392 9.1-33.961c-23.482-1.192-46.557-3.048-69.223-5.564l.474-21.668 17.453 2.359 34.777-129.789-14.927-3.999 5.16-19.25zm121.975 66.532c-4.939 28.816-5.347 56.297-1.224 82.441 16.316-20.513 29.991-44.439 41.027-71.775l-39.803-10.666zm-126.272 88.811a937.338 937.338 0 0 0 35.917 2.668l6.84-25.526-34.178-9.159-8.578 32.015zm13.505-50.4l34.178 9.156 7.708-28.77-34.176-9.159-7.71 28.771zm12.694-47.374l34.178 9.159 7.766-28.987-34.178-9.156-7.766 28.985z"/></svg>