<svg xmlns="http://www.w3.org/2000/svg" width="1024" height="1024" viewBox="0 0 1024 1024"><path d="M383.657 990.982C119.123 920.101-37.862 648.192 33.02 383.659S375.809-37.86 640.343 33.021c264.534 70.881 421.518 342.789 350.637 607.322s-342.789 421.521-607.322 350.64zm-4.14 15.45c273.067 73.168 553.746-88.882 626.914-361.949S917.549 90.739 644.482 17.57 90.736 106.452 17.569 379.519c-73.168 273.066 88.881 553.745 361.949 626.913z"/><path d="M940.208 643.311l-15.296-4.68a439.457 439.457 0 0 0 7.999-29.855l15.586 3.594c-1.195 5.183-2.484 10.366-3.874 15.544s-2.86 10.31-4.417 15.396zm14.368-62.317l-15.802-2.483a432.436 432.436 0 0 0 3.698-30.625l15.938 1.348a447.726 447.726 0 0 1-3.835 31.759zm5.385-63.679l-15.994-.202a428.33 428.33 0 0 0-.721-30.828l15.966-.949c.631 10.602.883 21.266.749 31.98zm-3.792-63.802l-15.858 2.095a429.323 429.323 0 0 0-5.132-30.401l15.668-3.226a444.842 444.842 0 0 1 5.322 31.533zm-12.886-62.598l-15.396 4.338a432.512 432.512 0 0 0-9.416-29.363l15.049-5.425a449.782 449.782 0 0 1 9.764 30.449zm-21.671-60.125l-14.624 6.481a433.996 433.996 0 0 0-13.486-27.734l14.127-7.502a449.475 449.475 0 0 1 13.982 28.755zm-29.971-56.447l-13.56 8.484a435.442 435.442 0 0 0-17.275-25.547l12.925-9.425a451.595 451.595 0 0 1 17.911 26.488zm-37.658-51.637a447.895 447.895 0 0 0-21.488-23.681L821.04 210.19a433.523 433.523 0 0 1 20.723 22.835l12.221-10.32zm-44.608-45.765l-10.627 11.956a430.005 430.005 0 0 0-23.761-19.644l9.742-12.686a446.497 446.497 0 0 1 24.646 20.375zm-50.686-38.923l-8.807 13.354a428.544 428.544 0 0 0-26.335-16.038l7.823-13.953a443.764 443.764 0 0 1 27.319 16.637zm-55.739-31.255l-6.801 14.478a432.893 432.893 0 0 0-28.37-12.11l5.75-14.926a447.392 447.392 0 0 1 29.422 12.558zm-59.633-22.982l-4.68 15.296a440.556 440.556 0 0 0-29.855-7.999l3.594-15.587a456.228 456.228 0 0 1 30.94 8.29zm-62.316-14.368l-2.483 15.802a432.441 432.441 0 0 0-30.625-3.699l1.348-15.939A447.29 447.29 0 0 1 581 69.413zm-63.681-5.386l-.201 15.995a427.726 427.726 0 0 0-30.828.721l-.949-15.968a443.994 443.994 0 0 1 31.977-.748zm-63.801 3.791l2.095 15.859a429.506 429.506 0 0 0-30.401 5.131l-3.227-15.667a446.214 446.214 0 0 1 31.534-5.323zm-62.597 12.888l4.338 15.396a432.332 432.332 0 0 0-29.363 9.416l-5.426-15.048a449.253 449.253 0 0 1 30.45-9.765zm-60.126 21.671a450.53 450.53 0 0 0-28.754 13.983l7.501 14.128c9.08-4.82 18.33-9.32 27.735-13.487l-6.482-14.624zm-56.447 29.971l8.484 13.56a434.59 434.59 0 0 0-25.546 17.275l-9.425-12.925a450.273 450.273 0 0 1 26.488-17.911zm-51.638 37.659l10.321 12.222a432.295 432.295 0 0 0-22.836 20.72l-11.166-11.455a449.502 449.502 0 0 1 23.681-21.487zm-45.763 44.607l11.955 10.627a428.744 428.744 0 0 0-19.643 23.762l-12.688-9.742a445.361 445.361 0 0 1 20.377-24.647zM138.024 265.3l13.354 8.806a429.573 429.573 0 0 0-16.039 26.336l-13.951-7.823a443.775 443.775 0 0 1 16.636-27.32zm-31.254 55.739l14.478 6.802a432.457 432.457 0 0 0-12.11 28.371l-14.927-5.75a448.749 448.749 0 0 1 12.56-29.423zm-22.983 59.633a456.175 456.175 0 0 0-8.29 30.94l15.586 3.595a440.13 440.13 0 0 1 8-29.855l-15.296-4.68zm-14.368 62.316l15.802 2.484a432.316 432.316 0 0 0-3.699 30.623l-15.939-1.348a447.43 447.43 0 0 1 3.836-31.759zm-5.386 63.68l15.995.201c-.13 10.327.114 20.607.721 30.828l-15.968.949a443.967 443.967 0 0 1-.748-31.977zm3.792 63.801l15.859-2.095a430.08 430.08 0 0 0 5.131 30.401l-15.667 3.227a446.214 446.214 0 0 1-5.323-31.534zm12.887 62.598l15.396-4.338a432.332 432.332 0 0 0 9.416 29.363l-15.049 5.426a449.237 449.237 0 0 1-9.763-30.45zm21.671 60.126l14.624-6.482a435.092 435.092 0 0 0 13.486 27.735l-14.127 7.501a449.709 449.709 0 0 1-13.982-28.754zm29.972 56.447l13.56-8.484a434.082 434.082 0 0 0 17.274 25.546l-12.923 9.425a449.45 449.45 0 0 1-17.911-26.488zm37.657 51.637l12.223-10.321a430.99 430.99 0 0 0 20.72 22.836L191.5 824.958a447.975 447.975 0 0 1-21.488-23.681zm44.608 45.766l10.627-11.956a428.976 428.976 0 0 0 23.764 19.645l-9.742 12.686a447.076 447.076 0 0 1-24.649-20.374zm50.686 38.921l8.807-13.354a428.557 428.557 0 0 0 26.335 16.039l-7.823 13.953a443.777 443.777 0 0 1-27.319-16.638zm55.738 31.257l6.801-14.479a432.279 432.279 0 0 0 28.373 12.11l-5.753 14.927a448.936 448.936 0 0 1-29.422-12.558zm59.634 22.98l4.681-15.296a437.46 437.46 0 0 0 29.855 7.999l-3.596 15.586a449.72 449.72 0 0 1-15.542-3.874 451.556 451.556 0 0 1-15.399-4.417zm62.315 14.369l2.483-15.802a430.828 430.828 0 0 0 30.625 3.698l-1.348 15.938a447.867 447.867 0 0 1-31.759-3.835zm63.682 5.386l.201-15.994c10.327.13 20.607-.113 30.828-.721l.949 15.969a443.42 443.42 0 0 1-31.977.746zm63.8-3.793l-2.095-15.858a428.936 428.936 0 0 0 30.401-5.132l3.227 15.668a445.063 445.063 0 0 1-31.534 5.322zm62.598-12.886l-4.338-15.396a431.213 431.213 0 0 0 29.363-9.416l5.426 15.049a449.809 449.809 0 0 1-30.45 9.764zm60.126-21.671l-6.482-14.624a434.022 434.022 0 0 0 27.735-13.486l7.501 14.127a449.709 449.709 0 0 1-28.754 13.982zm56.447-29.971l-8.484-13.56a434.59 434.59 0 0 0 25.546-17.275l9.425 12.925a449.781 449.781 0 0 1-26.488 17.911zm51.637-37.659l-10.321-12.221a432.732 432.732 0 0 0 22.836-20.72l11.166 11.453a447.106 447.106 0 0 1-23.681 21.488zm45.766-44.607l-11.956-10.627a429.091 429.091 0 0 0 19.643-23.761l12.688 9.742a446.636 446.636 0 0 1-20.374 24.646zm38.921-50.686l-13.354-8.807a428.557 428.557 0 0 0 16.039-26.335l13.953 7.823a443.777 443.777 0 0 1-16.638 27.319zm31.256-55.739l-14.479-6.801a432.43 432.43 0 0 0 12.11-28.37l14.927 5.75a448.473 448.473 0 0 1-12.558 29.422zM162.131 550.754c15.52 139.868 114.661 262.57 258.788 301.186 144.126 38.619 291.334-18.073 374.71-131.441l-16.653-4.462c-80.197 104.862-218.484 156.742-353.918 120.452s-229.253-150.36-246.275-281.272l-16.653-4.464zM365.786 466.815l-139.823-37.464-16.76 62.546c-2.265 8.461.755 13.803 9.064 16.031l113.76 30.482c3.929 1.051 7.845.644 11.745-1.226 4.363-2.391 10.351-15.361 17.954-38.906l19.253 12.445c-10.329 27.673-18.564 43.603-24.705 47.785-6.776 3.53-14.754 4.306-23.941 2.329l-125.771-33.7c-18.734-5.018-25.47-17.348-20.206-36.99l31.636-118.066 21.754 5.83-8.258 30.82 118.066 31.635 14.452-53.934-150.245-40.258 5.526-20.622 172 46.087-25.502 95.177zM495.188 396.32c-9.71 15.696-20.192 29.727-31.44 42.095l-41.413 154.55-21.529-5.767 31.941-119.2a372.865 372.865 0 0 1-23.687 17.7l-1.12-24.833c27.63-20.933 50.895-47.327 69.794-79.181l17.453 14.634zm72.059 9.35c.503 8.393.829 15.038.974 19.935l63.225 16.941-5.1 19.035-140.955-37.768 5.1-19.035 56.201 15.059c-.508-5.965-1.231-11.422-2.171-16.369l22.725 2.203zm-70.931 31.757l110.588 29.63-12.144 45.324-110.588-29.633 12.144-45.321zm81.905 53.28l3.583-13.371-68.664-18.399-3.583 13.371 68.664 18.399zm31.769 36.443l-11.112 41.47-13.142-3.522-3.219 12.01-46.909-12.569-8.563 31.952c-3.764 14.051-13.2 19.052-28.307 15.004l-25.154-6.739.828-22.123c8.407 3.063 15.785 5.443 22.13 7.142 5.59 1.499 8.973.057 10.145-4.323l7.166-26.741-47.589-12.752 3.219-12.01-15.864-4.251 11.112-41.47 145.259 38.921zm-134.108 1.956l104.014 27.871 4.494-16.77-104.017-27.871-4.491 16.77zM676.444 524.797l-9.29 34.671 52.122 13.965 9.29-34.671-52.122-13.965zm-15.768 54.31c-10.369 27.825-25.069 49.146-44.098 63.963l-12.597-19.161c18.818-15.847 32.461-38.665 40.93-68.457l29.752-111.04 173.813 46.572-45.723 170.642c-4.573 17.071-15.548 23.28-32.922 18.623l-26.06-6.983-.017-22.593c9.617 3.387 17.749 5.97 24.397 7.751 7.403 1.984 12.298-1.48 14.686-10.394l9.047-33.766-56.201-15.058-17.303 64.583-21.757-5.829 17.306-64.585-53.254-14.269zm136.553 15.216l9.29-34.673-56.2-15.058-9.29 34.671 56.2 15.06zm14.573-54.389l9.109-33.99-56.201-15.06-9.107 33.993 56.2 15.058zm-68.846-54.879l-52.122-13.965-9.107 33.993 52.122 13.965 9.107-33.993z"/></svg>