<svg xmlns="http://www.w3.org/2000/svg" width="1024" height="1024" viewBox="0 0 1024 1024"><path d="M383.657 990.981C119.123 920.1-37.862 648.191 33.02 383.658S375.809-37.861 640.343 33.02c264.534 70.881 421.518 342.789 350.637 607.322s-342.789 421.521-607.322 350.64zm-4.14 15.45c273.067 73.168 553.746-88.882 626.914-361.949S917.549 90.738 644.482 17.569 90.736 106.451 17.569 379.517c-73.168 273.066 88.881 553.745 361.948 626.913z"/><path d="M940.208 643.31l-15.296-4.68a439.457 439.457 0 0 0 7.999-29.855l15.586 3.594c-1.195 5.183-2.484 10.366-3.874 15.544s-2.86 10.31-4.417 15.396zm14.368-62.317l-15.802-2.483a432.436 432.436 0 0 0 3.698-30.625l15.938 1.348a447.726 447.726 0 0 1-3.835 31.759zm5.385-63.678l-15.994-.202a428.33 428.33 0 0 0-.721-30.828l15.966-.949c.631 10.602.883 21.266.749 31.98zm-3.792-63.803l-15.858 2.095a429.323 429.323 0 0 0-5.132-30.401l15.668-3.226a444.842 444.842 0 0 1 5.322 31.533zm-12.886-62.598l-15.396 4.338a432.512 432.512 0 0 0-9.416-29.363l15.049-5.425a449.782 449.782 0 0 1 9.764 30.449zm-21.671-60.125l-14.624 6.481a433.996 433.996 0 0 0-13.486-27.734l14.127-7.502a449.475 449.475 0 0 1 13.982 28.755zm-29.971-56.446l-13.56 8.484a435.442 435.442 0 0 0-17.275-25.547l12.925-9.425a451.595 451.595 0 0 1 17.911 26.488zm-37.658-51.638a447.895 447.895 0 0 0-21.488-23.681l-11.455 11.165a433.523 433.523 0 0 1 20.723 22.835l12.221-10.32zm-44.608-45.764l-10.627 11.956a430.005 430.005 0 0 0-23.761-19.644l9.742-12.686a446.497 446.497 0 0 1 24.646 20.375zm-50.686-38.924l-8.807 13.354a428.544 428.544 0 0 0-26.335-16.038l7.823-13.953a443.764 443.764 0 0 1 27.319 16.637zm-55.739-31.255l-6.801 14.478a432.893 432.893 0 0 0-28.37-12.11l5.75-14.926a447.392 447.392 0 0 1 29.422 12.558zM643.317 83.78l-4.68 15.296a440.556 440.556 0 0 0-29.855-7.999l3.594-15.587a456.228 456.228 0 0 1 30.94 8.29zM581 69.412l-2.483 15.802a432.441 432.441 0 0 0-30.625-3.699l1.348-15.939a447.29 447.29 0 0 1 31.759 3.836zm-63.68-5.386l-.201 15.995a427.726 427.726 0 0 0-30.828.721l-.949-15.968a443.994 443.994 0 0 1 31.977-.748zm-63.801 3.792l2.095 15.859a429.506 429.506 0 0 0-30.401 5.131l-3.227-15.667a446.214 446.214 0 0 1 31.534-5.323zm-62.598 12.887l4.338 15.396a432.332 432.332 0 0 0-29.363 9.416l-5.426-15.048a449.253 449.253 0 0 1 30.45-9.765zm-60.125 21.671a450.53 450.53 0 0 0-28.754 13.983l7.501 14.128c9.08-4.82 18.33-9.32 27.735-13.487l-6.482-14.624zm-56.447 29.971l8.484 13.56a434.59 434.59 0 0 0-25.546 17.275l-9.425-12.925a450.273 450.273 0 0 1 26.488-17.911zm-51.638 37.659l10.321 12.222a432.295 432.295 0 0 0-22.836 20.72l-11.166-11.455a449.502 449.502 0 0 1 23.681-21.487zm-45.763 44.608l11.955 10.627a428.744 428.744 0 0 0-19.643 23.762l-12.688-9.742a445.361 445.361 0 0 1 20.377-24.647zm-38.924 50.685l13.354 8.806a429.573 429.573 0 0 0-16.039 26.336l-13.951-7.823a443.775 443.775 0 0 1 16.636-27.32zm-31.254 55.739l14.478 6.802a432.457 432.457 0 0 0-12.11 28.371l-14.927-5.75a448.749 448.749 0 0 1 12.56-29.423zm-22.983 59.633a456.175 456.175 0 0 0-8.29 30.94l15.586 3.595a440.13 440.13 0 0 1 8-29.855l-15.296-4.68zm-14.368 62.316l15.802 2.484a432.316 432.316 0 0 0-3.699 30.623l-15.939-1.348a447.43 447.43 0 0 1 3.836-31.759zm-5.386 63.681l15.995.201c-.13 10.327.114 20.607.721 30.828l-15.968.949a443.967 443.967 0 0 1-.748-31.977zm3.792 63.8l15.859-2.095a430.08 430.08 0 0 0 5.131 30.401l-15.667 3.227a446.214 446.214 0 0 1-5.323-31.534zm12.887 62.598l15.396-4.338a432.332 432.332 0 0 0 9.416 29.363l-15.049 5.426a449.237 449.237 0 0 1-9.763-30.45zm21.671 60.126l14.624-6.482a435.092 435.092 0 0 0 13.486 27.735l-14.127 7.501a449.709 449.709 0 0 1-13.982-28.754zm29.972 56.447l13.56-8.484a434.082 434.082 0 0 0 17.274 25.546l-12.923 9.425a449.45 449.45 0 0 1-17.911-26.488zm37.657 51.637l12.223-10.321a430.99 430.99 0 0 0 20.72 22.836L191.5 824.957a447.975 447.975 0 0 1-21.488-23.681zm44.608 45.766l10.627-11.956a428.976 428.976 0 0 0 23.764 19.645l-9.742 12.686a447.076 447.076 0 0 1-24.649-20.374zm50.686 38.921l8.807-13.354a428.557 428.557 0 0 0 26.335 16.039l-7.823 13.953a443.777 443.777 0 0 1-27.319-16.638zm55.738 31.257l6.801-14.479a432.279 432.279 0 0 0 28.373 12.11l-5.753 14.927a448.936 448.936 0 0 1-29.422-12.558zm59.633 22.981l4.681-15.296a437.46 437.46 0 0 0 29.855 7.999l-3.596 15.586a449.72 449.72 0 0 1-15.542-3.874 451.556 451.556 0 0 1-15.399-4.417zm62.316 14.369l2.483-15.802a430.828 430.828 0 0 0 30.625 3.698l-1.348 15.938a447.867 447.867 0 0 1-31.759-3.835zm63.682 5.385l.201-15.994c10.327.13 20.607-.113 30.828-.721l.949 15.969a443.42 443.42 0 0 1-31.977.746zm63.8-3.793l-2.095-15.858a428.936 428.936 0 0 0 30.401-5.132l3.227 15.668a445.063 445.063 0 0 1-31.534 5.322zm62.598-12.886l-4.338-15.396a431.213 431.213 0 0 0 29.363-9.416l5.426 15.049a449.809 449.809 0 0 1-30.45 9.764zm60.126-21.671l-6.482-14.624a434.022 434.022 0 0 0 27.735-13.486l7.501 14.127a449.709 449.709 0 0 1-28.754 13.982zm56.447-29.971l-8.484-13.56a434.59 434.59 0 0 0 25.546-17.275l9.425 12.925a449.781 449.781 0 0 1-26.488 17.911zm51.637-37.658l-10.321-12.221a432.732 432.732 0 0 0 22.836-20.72l11.166 11.453a447.106 447.106 0 0 1-23.681 21.488zm45.766-44.608l-11.956-10.627a429.091 429.091 0 0 0 19.643-23.761l12.688 9.742a446.636 446.636 0 0 1-20.374 24.646zm38.921-50.686l-13.354-8.807a428.557 428.557 0 0 0 16.039-26.335l13.953 7.823a443.777 443.777 0 0 1-16.638 27.319zm31.256-55.739l-14.479-6.801a432.43 432.43 0 0 0 12.11-28.37l14.927 5.75a448.473 448.473 0 0 1-12.558 29.422zM162.131 550.753c15.52 139.868 114.661 262.57 258.788 301.186 144.126 38.619 291.334-18.073 374.71-131.441l-16.653-4.462c-80.197 104.862-218.484 156.742-353.918 120.452s-229.253-150.36-246.275-281.272l-16.653-4.464zM365.784 466.78l-139.82-37.465-16.76 62.544c-2.267 8.461.755 13.806 9.063 16.031l113.761 30.482c3.929 1.053 7.842.644 11.743-1.224 4.366-2.393 10.351-15.362 17.956-38.909l19.253 12.445c-10.329 27.675-18.566 43.603-24.706 47.788-6.774 3.528-14.754 4.304-23.941 2.329l-125.771-33.7c-18.733-5.021-25.468-17.351-20.206-36.99l31.636-118.067 21.754 5.83-8.258 30.82 118.067 31.636 14.45-53.935-150.243-40.259 5.524-20.621 172 46.087-25.502 95.178zM454.265 379.491c12.101 15.873 21.861 31.118 29.279 45.735l-19.826 11.447c-6.43-14.677-15.747-30.369-27.946-47.079l18.493-10.103zm81.563 239.48c-7.855-2.105-21.865-6.021-42.029-11.748-15.217-4.24-27.413-8.885-36.584-13.934-8.64-5.228-15.531-12.744-20.678-22.542-2.16-4.626-4.677-7.324-7.548-8.094-4.833-1.295-15.955 6.979-33.368 24.819l-11.916-18.98c16.502-15.657 30.008-24.668 40.519-27.033l17.124-63.905-30.822-8.258 5.467-20.396 51.441 13.784-23.013 85.888c1.007 1.079 1.911 2.535 2.715 4.37 3.86 7.349 8.405 13.345 13.639 17.984 6.251 5.076 16.265 9.702 30.042 13.88 17.745 5.078 33.643 9.5 47.694 13.266l31.333 8.152c10.848 2.421 19.204 4.174 25.067 5.26l-11.041 20.357-48.043-12.872zm-29.708-40.509l.828-22.123c9.579 3.539 18.747 6.482 27.509 8.83 5.742 1.538 9.261-.111 10.556-4.946l24.532-91.55-80.901-21.678 5.586-20.849 80.901 21.678 9.35-34.899 21.757 5.83-9.352 34.899 30.367 8.137-5.586 20.848-30.367-8.137-25.929 96.764c-3.846 14.354-13.398 19.485-28.656 15.396l-30.593-8.198zm6.416-107.335c8.58 19.948 14.78 36.993 18.603 51.132l-21.529 7.834c-3.428-15.006-9.186-32.497-17.272-52.476l20.198-6.49zM672.799 436.832l20.848 5.588-6.253 23.341 39.205 10.504 6.132-22.889 20.848 5.588-6.132 22.887 11.784 3.159-5.345 19.942-11.784-3.159-24.348 90.872 12.916 3.462-5.342 19.942-108.549-29.085 5.345-19.942 14.729 3.946 24.348-90.872-12.236-3.278 5.342-19.942 12.238 3.278 6.253-23.341zm-15.098 139.743l39.205 10.504 4.735-17.677-39.203-10.504-4.737 17.677zm63.553-80.369l-39.203-10.504-4.799 17.902 39.205 10.504 4.797-17.902zm-53.777 43.883l39.203 10.504 4.737-17.675-39.205-10.506-4.735 17.677zm24.49 69.955c6.097 14.102 10.687 26.585 13.767 37.45 18.227-16.653 31.32-39.538 39.284-68.655l29.025-108.321 80.221 21.495-47.606 177.665c-3.967 14.806-13.354 20.226-28.157 16.258l-23.567-6.315-.245-22.653c10.715 3.517 18.189 5.844 22.418 6.979 4.987 1.335 8.348-1.246 10.09-7.742l10.928-40.79-38.525-10.323c-11.106 28.761-26.809 51.108-47.109 67.043l-11.586-18.406-15.345 5.605c-2.412-12.144-6.744-26.5-12.991-43.072l19.398-6.217zm-34.322.276c-12.257 13.718-25.596 25.122-40.013 34.212l-13.716-16.792c13.75-7.812 26.669-17.952 38.753-30.42l14.976 13zm117.948-59.477l-9.35 34.899 37.164 9.958 9.35-34.899-37.164-9.958zm42.388-9.53l9.29-34.673-37.166-9.958-9.288 34.671 37.164 9.96z"/></svg>