<svg xmlns="http://www.w3.org/2000/svg" width="1024" height="1024" viewBox="0 0 1024 1024"><path d="M1008.98 936.572a51.235 51.235 0 0 1 11.113 16.608 51.243 51.243 0 0 1 .014 39.206 51.229 51.229 0 0 1-11.106 16.615 51.077 51.077 0 0 1-16.615 11.101 51.21 51.21 0 0 1-19.599 3.898 51.223 51.223 0 0 1-19.599-3.911 51.125 51.125 0 0 1-16.608-11.106l-424.598-424.6-424.597 424.6c-9.604 9.591-22.624 14.978-36.196 14.971s-26.59-5.4-36.188-14.999a51.195 51.195 0 0 1-.024-72.383l424.597-424.595L14.977 87.38C5.386 77.776 0 64.756.004 51.185A51.207 51.207 0 0 1 51.189-.001a51.198 51.198 0 0 1 36.196 14.973l424.597 424.596L936.58 14.972c9.605-9.591 22.624-14.977 36.194-14.973s26.591 5.399 36.189 14.997a51.177 51.177 0 0 1 14.991 36.189 51.186 51.186 0 0 1-14.971 36.195L584.388 511.977l424.595 424.595z"/></svg>