<svg xmlns="http://www.w3.org/2000/svg" width="1024" height="1024" viewBox="0 0 1024 1024"><path fill="#f2f2f2" d="M512 1008c-273.933 0-496-222.067-496-496S238.067 16 512 16s496 222.067 496 496c-.319 273.806-222.194 495.681-495.969 496H512zm0-915.693C280.212 92.307 92.307 280.209 92.307 512S280.209 931.693 512 931.693c231.788 0 419.693-187.902 419.693-419.693-.289-231.673-188.018-419.402-419.664-419.693h-.028z"/><path fill="#f2f2f2" d="M512 92.307C280.212 92.307 92.307 280.209 92.307 512S280.209 931.693 512 931.693c231.788 0 419.693-187.902 419.693-419.693-.289-231.673-188.018-419.402-419.664-419.693h-.028z"/><path fill="#e0e0e0" d="M512 1008c-273.933 0-496-222.067-496-496S238.067 16 512 16s496 222.067 496 496c-.289 273.818-222.183 495.712-495.972 496H512zm0-915.693C280.212 92.307 92.307 280.209 92.307 512S280.209 931.693 512 931.693c231.788 0 419.693-187.902 419.693-419.693-.26-231.684-188.009-419.432-419.667-419.693H512z"/><path fill="#e0e0e0" d="M335.475 335.475c6.907-6.91 16.447-11.185 26.988-11.185s20.082 4.274 26.987 11.185l305.74 305.74a38.018 38.018 0 0 1 10.722 26.519c0 21.071-17.081 38.155-38.155 38.155-10.297 0-19.64-4.078-26.505-10.708L335.523 389.452c-6.894-6.903-11.159-16.435-11.159-26.961s4.263-20.058 11.159-26.963z"/></svg>