<svg xmlns="http://www.w3.org/2000/svg" width="1024" height="1024" viewBox="0 0 1024 1024"><path d="M985.848 583.674a36.918 36.918 0 0 1 4.62 13.605 36.814 36.814 0 0 1-.942 14.336 36.804 36.804 0 0 1-17.157 22.357 36.815 36.815 0 0 1-27.939 3.68 36.772 36.772 0 0 1-12.884-6.355 36.783 36.783 0 0 1-9.473-10.801l-84.61-146.549a568.7 568.7 0 0 1-162.428 74.927l26.754 151.731c1.696 9.617-.495 19.516-6.099 27.515a36.843 36.843 0 0 1-30.214 15.709 36.835 36.835 0 0 1-36.216-30.431L602.935 564.14a627.149 627.149 0 0 1-181.753-.064l-26.317 149.258a36.83 36.83 0 0 1-42.658 29.873 36.824 36.824 0 0 1-29.874-42.657l26.762-151.794a568.795 568.795 0 0 1-162.227-74.943l-85.106 147.409a36.814 36.814 0 0 1-22.358 17.156 36.816 36.816 0 0 1-38.742-13.152 36.814 36.814 0 0 1-2.675-40.827L127.73 428.96a680.001 680.001 0 0 1-85.992-88.829c-3.038-3.761-5.307-8.085-6.676-12.722s-1.81-9.5-1.298-14.307a36.814 36.814 0 0 1 26.198-31.428 36.814 36.814 0 0 1 39.059 12.177 592.539 592.539 0 0 0 97.791 96.306c.287.207.552.434.832.648a504.438 504.438 0 0 0 314.614 106.277 504.427 504.427 0 0 0 314.548-106.228c.242-.183.472-.375.712-.55a592.413 592.413 0 0 0 97.973-96.45 36.825 36.825 0 0 1 24.751-13.456 36.8 36.8 0 0 1 27.014 7.976 36.788 36.788 0 0 1 13.474 24.738 36.815 36.815 0 0 1-7.955 27.023 680.187 680.187 0 0 1-86.171 88.987l89.237 154.553z"/></svg>