<svg xmlns="http://www.w3.org/2000/svg" width="1463" height="1024" viewBox="0 0 1463 1024"><path d="M1434.947 492.887c-2.075-4.657-51.997-115.419-163.049-226.469-147.887-147.91-334.759-226.093-540.4-226.093-205.634 0-392.509 78.184-540.4 226.093C80.055 377.468 30.129 488.229 28.056 492.887c-2.68 6.031-4.063 12.557-4.063 19.156s1.386 13.125 4.063 19.156c2.073 4.664 52.004 115.396 163.049 226.427 147.894 147.879 334.76 226.048 540.394 226.048 205.642 0 392.508-78.169 540.4-226.048 111.043-111.03 160.973-221.762 163.049-226.427 2.68-6.031 4.06-12.557 4.06-19.156s-1.382-13.125-4.06-19.156zM731.498 889.338c-181.475 0-340.039-65.951-471.286-196.019a786.93 786.93 0 0 1-136.275-181.275 786.98 786.98 0 0 1 136.275-181.323c131.247-130.095 289.815-196.062 471.286-196.062 181.477 0 340.043 65.966 471.289 196.062a786.878 786.878 0 0 1 136.28 181.329c-42.527 79.301-227.678 377.29-607.567 377.29zm0-660.293a282.997 282.997 0 0 0-261.459 174.703A283.004 283.004 0 0 0 839.802 773.51a282.967 282.967 0 0 0 127.005-104.234 282.971 282.971 0 0 0 47.695-157.227 283.31 283.31 0 0 0-283.004-283.004zm0 471.673A188.67 188.67 0 0 1 546.457 475.24a188.67 188.67 0 0 1 148.237-148.237A188.667 188.667 0 0 1 803.7 337.74a188.657 188.657 0 0 1 116.47 174.307 188.88 188.88 0 0 1-188.669 188.669z"/></svg>