<svg xmlns="http://www.w3.org/2000/svg" width="1024" height="1024" viewBox="0 0 1024 1024"><path d="M279.273.007h.059c12.835 0 24.453 5.212 32.854 13.634L777.639 479.09c8.422 8.424 13.632 20.06 13.634 32.913v.004c0 12.852-5.211 24.487-13.634 32.908l-465.452 465.452c-8.423 8.422-20.06 13.632-32.912 13.632-25.707 0-46.546-20.839-46.546-46.546 0-12.854 5.211-24.491 13.634-32.914l432.539-432.54L246.363 79.457c-6.51-6.503-10.943-14.801-12.74-23.832s-.874-18.389 2.649-26.891C243.452 11.722 259.994 0 279.275-.001z"/></svg>