<svg xmlns="http://www.w3.org/2000/svg" width="1024" height="1024" viewBox="0 0 1024 1024"><path d="M996.563 473.075l-206.769 172.09 65.64 265.475a76.094 76.094 0 0 1-2.048 44.898 76.108 76.108 0 0 1-27.023 35.917 73.72 73.72 0 0 1-41.205 14.138 73.738 73.738 0 0 1-42.002-11.57L512.608 847.971c-.643-.358-.929-.219-1.215 0L297.129 983.704a81.56 81.56 0 0 1-46.294 12.704 81.541 81.541 0 0 1-45.413-15.556 84.033 84.033 0 0 1-29.822-39.647 84.026 84.026 0 0 1-2.247-49.564l61.78-243.01L27.439 473.077a76.258 76.258 0 0 1-23.57-82.563c4.566-14.334 13.346-26.958 25.195-36.228s26.216-14.751 41.228-15.731l269.974-17.534L442.47 65.975a74.616 74.616 0 0 1 69.422-47.603h.072c15.042.003 29.73 4.549 42.144 13.043s21.971 20.54 27.42 34.56l100.704 253.583 271.472 18.998a74.826 74.826 0 0 1 41.227 15.731 74.78 74.78 0 0 1 25.196 36.228c4.82 14.538 5.149 30.188.944 44.914s-12.748 27.845-24.508 37.648z"/></svg>