<svg xmlns="http://www.w3.org/2000/svg" width="1024" height="1024" viewBox="0 0 1024 1024"><path d="M770.478 435.155c0-185.194-150.131-335.324-335.324-335.324S99.83 249.961 99.83 435.155c0 185.194 150.13 335.324 335.324 335.324s335.324-150.131 335.324-335.324zm-64.544 319.966c-73.045 61.873-167.554 99.188-270.78 99.188C203.662 854.309 16 666.646 16 435.155S203.661 16.001 435.154 16.001c231.489 0 419.154 187.661 419.154 419.154 0 101.574-36.131 194.706-96.239 267.252a41.75 41.75 0 0 1 17.716 10.714L995.947 936.67c16.241 16.499 16.039 43.033-.453 59.28-16.499 16.241-43.033 16.039-59.28-.453L716.058 771.948a41.754 41.754 0 0 1-10.127-16.828z"/></svg>