<svg xmlns="http://www.w3.org/2000/svg" width="1024" height="1024" viewBox="0 0 1024 1024"><path d="M512 16C238.066 16 16 238.066 16 512s222.066 496 496 496c273.934 0 496-222.066 496-496-.288-273.818-222.183-495.712-495.972-496H512zm236.197 409.163L468.402 692.239c-6.851 6.531-16.145 10.547-26.378 10.547s-19.528-4.018-26.392-10.563l.015.015L275.749 558.7c-7.284-6.971-11.811-16.769-11.811-27.623 0-21.105 17.107-38.212 38.212-38.212 10.248 0 19.556 4.034 26.417 10.602l-.014-.013L441.997 611.81l253.442-241.894a38.06 38.06 0 0 1 26.378-10.571c21.094 0 38.195 17.099 38.195 38.195 0 10.857-4.53 20.656-11.804 27.611l-.014.014z"/></svg>